<svg width="222" height="254" viewBox="0 0 222 254" fill="none" xmlns="http://www.w3.org/2000/svg">
<path d="M86.7515 49.2842C91.1581 49.2257 93.2268 52.3699 93.4737 56.4192C94.5395 73.9099 93.8815 91.516 94.1373 109.029C94.1846 112.258 97.9475 111.492 98.5385 110.206C98.8746 109.474 98.6508 103.374 98.6495 102.228L98.6883 77.9623C98.6801 73.2736 98.5513 68.5206 98.8579 63.848C99.0608 60.759 100.997 57.6948 104.209 57.1283C105.715 56.8632 107.264 57.2155 108.508 58.1057C110.228 59.3427 111.574 62.1765 111.93 64.2245C112.961 70.4856 113.065 77.1593 113.167 83.5108C113.344 94.4571 113.906 105.354 114.466 116.285C114.572 118.358 114.638 120.525 114.957 122.568C113.42 123.326 111.587 124.261 109.877 124.573C101.714 126.065 92.6636 124.346 84.3904 125.263C73.2572 126.497 66.4552 130.26 59.3271 138.734C52.2307 147.171 49.5958 164.822 50.7587 175.675C48.5866 171.194 47.4042 166.683 45.8881 161.939C42.3708 148.861 43.5556 133.601 43.2493 120.138C43.0312 110.557 43.1825 100.8 43.4257 91.2166C43.5187 87.5469 44.6693 82.6217 48.5551 81.2229C49.7922 80.7726 51.1582 80.8377 52.3469 81.4035C57.3621 83.8128 56.7104 92.27 56.7321 96.9375L56.7355 111.473C56.7355 112.53 56.6352 116.846 57.0722 117.504C58.6629 119.897 61.0212 118.217 61.1814 115.656C61.4771 110.93 61.3193 106.291 61.3353 101.607C61.341 92.7221 61.4678 83.8368 61.7154 74.9547C61.8322 69.7323 61.0214 60.7376 66.3921 57.8008C69.3794 56.1675 73.4846 58.4009 74.5049 61.5107C75.81 65.4885 75.539 70.255 75.6261 74.4699C75.8143 80.8698 75.8997 87.2724 75.8824 93.6751C75.8637 98.8177 75.7874 104.029 75.8902 109.169C75.9039 109.849 76.0084 111.105 76.3578 111.671C76.7873 112.368 77.0282 112.378 77.687 112.523C80.0991 112.013 79.8134 109.144 79.8153 107.258C79.8175 104.9 79.799 102.54 79.7882 100.181L79.7271 72.4667C79.7299 67.4771 79.5491 62.2647 79.9786 57.3185C80.3892 52.5877 81.8588 49.9545 86.7515 49.2842Z" fill="#1F5837"/>
<path d="M116.17 127.668C114.781 141.425 112.767 155.062 101.34 164.324C92.9172 171.151 85.0353 171.87 75.3014 175.936C68.3706 178.832 62.9379 182.991 57.2871 187.803C56.0786 186.107 55.3602 185.088 54.4017 183.259C57.8449 176.052 65.7068 162.165 73.6431 159.236C74.473 158.93 76.406 158.678 77.356 158.549C77.2942 157.737 77.1645 156.302 76.675 155.678C77.096 154.383 77.7197 154.099 78.7983 153.396C83.6615 150.223 88.5086 147.107 93.5839 144.279C94.3114 143.38 94.6375 143.5 95.4669 142.741L95.3909 142.478L94.3082 141.969C89.6039 143.728 84.6056 146.208 80.1828 148.627C78.1531 149.737 76.1571 151.193 74.1138 152.268C74.5274 150.689 76.7639 143.928 76.5206 143.084L76.1551 142.991C73.9637 144.355 72.7319 152.573 71.649 153.852C68.0883 158.058 62.6786 161.767 59.4219 166.57C58.8411 167.426 55.7662 171.653 55.3819 171.868L55.028 171.708C54.571 170.456 54.7414 168.561 54.7438 167.227C54.7742 151.487 60.983 136.047 77.0581 130.887C90.2833 126.642 102.512 131.246 116.17 127.668Z" fill="#71A544"/>
<path d="M76.675 155.678C81.2882 155.101 88.1116 155.09 92.2689 157.545L92.5016 157.931C91.8657 158.394 91.0388 158.16 90.2612 158.066C85.9276 157.543 81.66 157.958 77.356 158.549C77.2942 157.737 77.1645 156.302 76.675 155.678Z" fill="#DFE8D8"/>
<path d="M96.9479 141.029C98.4464 140.459 100.14 139.635 101.722 139.895L101.847 140.174C101.104 140.981 99.2867 141.617 98.1882 142.075C97.8172 141.534 97.4899 141.375 96.9479 141.029Z" fill="#D7E8C2"/>
<path d="M94.3082 141.969L96.9479 141.029C97.4899 141.375 97.8172 141.534 98.1882 142.075C97.0762 142.623 94.6455 143.903 93.5839 144.279C94.3114 143.38 94.6375 143.5 95.4669 142.741L95.3909 142.478L94.3082 141.969Z" fill="#DFE8D8"/>
<path d="M140.988 97.3958C142.4 97.2345 143.362 97.3039 144.776 97.3702C145.546 97.8565 146.369 98.4574 147.124 98.9823C146.694 100.868 145.536 103.804 144.865 105.724C143.642 109.155 142.595 112.647 141.727 116.186C138.874 128.152 137.777 146.264 137.226 158.778C134.774 159.462 131.346 160.835 128.84 161.697C112.393 167.35 96.0373 176.004 82.3037 186.698C77.6003 190.361 73.6234 195.086 68.9243 198.793L67.6898 197.955C64.9634 196.184 61.7234 193.695 59.976 190.956C65.6764 185.733 71.9401 181.366 79.2171 178.38C87.3687 175.082 96.0922 173.644 103.106 167.981C111.44 161.253 114.782 154.696 117.597 144.57C121.448 130.722 123.198 100.521 140.988 97.3958Z" fill="#1F5837"/>
<path d="M135.771 163.08C135.968 163.028 136.161 163.065 136.374 163.08C136.525 163.82 135.549 167.981 135.347 168.934C132.222 170.464 127.588 171.927 124.086 173.479C114.182 177.887 104.913 183.601 96.5268 190.47C93.3306 193.087 91.2758 195.024 88.4759 198.008C87.1319 199.441 83.7389 203.15 82.2792 204.205L82.2033 204.259C80.0277 203.569 77.8669 202.834 75.7217 202.054L72.3501 200.705C81.4826 191.067 92.0493 182.897 103.676 176.484C109.056 173.58 114.441 171.259 120.042 168.844C125.336 166.561 130.003 164.203 135.771 163.08Z" fill="#1F5837"/>
<path d="M135.996 64.3657C141.825 63.9135 146.938 68.2236 147.479 74.0455C148.019 79.8673 143.787 85.0451 137.974 85.6734C134.134 86.0883 130.369 84.4027 128.122 81.2624C125.874 78.1223 125.493 74.0147 127.124 70.5145C128.755 67.0143 132.146 64.6645 135.996 64.3657Z" fill="#FDBE38"/>
<path d="M133.581 173.015L133.832 173.093C134.164 174.301 132.594 177.751 131.526 178.506C127.827 181.118 123.706 183.029 119.814 185.468C111.232 190.845 105.015 197.584 98.5301 205.171C94.748 205.698 91.5917 205.438 87.7904 205.275C87.502 205.185 87.2438 205.056 86.9696 204.929L86.9902 204.535C99.2446 190.642 116 179.029 133.581 173.015Z" fill="#1F5837"/>
<path d="M129.545 183.184C129.606 183.441 129.671 183.502 129.524 183.751C125.059 191.335 119.632 197.527 111.408 201.156C109.273 202.098 106.863 202.912 104.619 203.812L104.592 203.461C107.301 197.746 123.761 185.975 129.545 183.184Z" fill="#1F5837"/>
</svg>
